<svg xmlns="http://www.w3.org/2000/svg" xmlns:xlink="http://www.w3.org/1999/xlink" width="2000" zoomAndPan="magnify" viewBox="0 0 1500 1499.999933" height="2000" preserveAspectRatio="xMidYMid meet" version="1.0"><defs><clipPath id="4355d57ad0"><path d="M 0 0 L 1500 0 L 1500 1500 L 0 1500 Z M 0 0 " clip-rule="nonzero"/></clipPath><clipPath id="e7101dc21d"><rect x="0" width="1500" y="0" height="1500"/></clipPath><clipPath id="52c9b6d393"><path d="M 158.25 150 L 1341.75 150 L 1341.75 1350 L 158.25 1350 Z M 158.25 150 " clip-rule="nonzero"/></clipPath></defs><rect x="-150" width="1800" fill="#ffffff" y="-149.999993" height="1799.99992" fill-opacity="1"/><rect x="-150" width="1800" fill="#ffffff" y="-149.999993" height="1799.99992" fill-opacity="1"/><g transform="matrix(1, 0, 0, 1, 0, 0.000000000000112861)"><g clip-path="url(#e7101dc21d)"><g clip-path="url(#4355d57ad0)"><rect x="-330" width="2160" fill="#d9d9d9" height="2159.999904" y="-329.999985" fill-opacity="1"/></g></g></g><path fill="#000000" d="M 916.640625 665.007812 C 954.054688 665.007812 984.375 634.679688 984.375 597.273438 C 984.375 559.855469 954.054688 529.539062 916.640625 529.539062 C 879.234375 529.539062 848.90625 559.855469 848.90625 597.273438 C 848.90625 634.679688 879.234375 665.007812 916.640625 665.007812 " fill-opacity="1" fill-rule="nonzero"/><path fill="#000000" d="M 525.1875 665.007812 C 562.59375 665.007812 592.921875 634.679688 592.921875 597.273438 C 592.921875 559.855469 562.59375 529.539062 525.1875 529.539062 C 487.78125 529.539062 457.453125 559.855469 457.453125 597.273438 C 457.453125 634.679688 487.78125 665.007812 525.1875 665.007812 " fill-opacity="1" fill-rule="nonzero"/><g clip-path="url(#52c9b6d393)"><path fill="#000000" d="M 1259.183594 969.335938 L 1259.183594 1221.863281 L 1258.125 1221.863281 C 1118.78125 1221.863281 1005.589844 1108.539062 1005.589844 969.335938 L 1005.589844 899.0625 C 1005.589844 867.863281 1030.921875 842.53125 1062.121094 842.53125 L 1132.386719 842.53125 C 1202.25 842.53125 1259.183594 899.335938 1259.183594 969.335938 Z M 1099.855469 1267.734375 L 795.589844 1267.734375 C 545.070312 1267.734375 341.988281 1064.652344 341.988281 814.132812 L 341.988281 761.464844 C 387.054688 811.734375 452.390625 843.601562 525.1875 843.601562 C 587.941406 843.601562 644.78125 819.777344 688.226562 781.003906 C 689.425781 779.933594 691.273438 780.214844 692.078125 781.59375 L 724.125 836.398438 L 753.925781 785.53125 C 754.734375 784.164062 756.53125 783.871094 757.734375 784.894531 C 800.625 821.335938 855.871094 843.601562 916.65625 843.601562 C 922.921875 843.601562 929.050781 843.066406 935.324219 842.664062 C 927.589844 859.867188 923.183594 878.933594 923.183594 899.0625 L 923.183594 969.335938 C 923.183594 1096.929688 994.65625 1207.996094 1099.855469 1264.398438 Z M 525.1875 433.332031 C 576.523438 433.332031 623.988281 456.9375 655.453125 498.132812 L 694.921875 549.863281 C 707.988281 567.066406 733.855469 567.066406 746.78125 549.863281 L 786.382812 498.132812 C 817.855469 456.9375 865.320312 433.332031 916.65625 433.332031 C 1016.390625 433.332031 1095.71875 522.796875 1078.253906 625.734375 C 1066.789062 693.066406 1012.921875 747.195312 945.71875 758.804688 C 883.582031 769.460938 823.582031 745.332031 786.382812 696.402344 L 746.78125 644.664062 C 733.855469 627.601562 707.988281 627.601562 694.921875 644.664062 L 655.453125 696.402344 C 618.121094 745.332031 558.25 769.460938 496.125 758.804688 C 428.914062 747.195312 375.054688 693.066406 363.589844 625.867188 C 346.125 522.796875 425.453125 433.332031 525.1875 433.332031 Z M 720.917969 232.265625 C 838.65625 232.265625 943.984375 286.265625 1013.585938 370.800781 C 983.859375 357.992188 951.054688 350.933594 916.65625 350.933594 C 836.78125 350.933594 765.851562 389.195312 720.917969 448.132812 C 675.851562 389.195312 605.050781 350.933594 525.1875 350.933594 C 490.789062 350.933594 457.984375 357.992188 428.257812 370.800781 C 497.859375 286.265625 603.1875 232.265625 720.917969 232.265625 Z M 1283.324219 398.664062 L 1130.257812 398.664062 C 1053.316406 250.929688 898.921875 150 720.917969 150 C 542.921875 150 388.515625 250.929688 311.585938 398.664062 L 158.519531 398.664062 C 158.519531 465.066406 204.25 520.539062 265.855469 535.996094 C 261.851562 560.53125 259.582031 585.601562 259.582031 611.203125 L 259.582031 814.003906 C 259.582031 1110 499.582031 1350 795.589844 1350 L 1182.121094 1350 L 1182.121094 1295.203125 C 1206.65625 1300.929688 1231.984375 1304.269531 1258.125 1304.269531 L 1341.457031 1304.269531 L 1341.457031 969.335938 C 1341.457031 870.9375 1273.582031 788.804688 1182.121094 766.398438 L 1182.121094 611.203125 C 1182.121094 585.601562 1179.984375 560.53125 1175.988281 535.996094 C 1237.582031 520.539062 1283.324219 465.066406 1283.324219 398.664062 " fill-opacity="1" fill-rule="nonzero"/></g></svg>